<svg
  width="98"
  height="78"
  viewBox="0 0 98 78"
  fill="none"
  xmlns="http://www.w3.org/2000/svg"
>
  <path
    d="M17.5159 24.5903H17.811C20.5651 24.3935 22.6307 22.0329 22.5323 19.2788C22.3356 16.5247 19.975 14.4591 17.2209 14.5575C14.4668 14.6558 12.4012 17.1147 12.4995 19.8688C12.5979 22.5246 14.8602 24.5903 17.5159 24.5903ZM15.1553 17.5083C15.6471 16.9181 16.434 16.5246 17.2209 16.5246H17.4176C19.0897 16.5246 20.4668 17.9016 20.4668 19.5738C20.4668 21.2459 19.0897 22.623 17.4176 22.623C15.7454 22.623 14.3684 21.2459 14.3684 19.5738C14.3684 18.7869 14.6635 18.0985 15.1553 17.5083Z"
    fill="#F4F4F5"
  />
  <path
    d="M84.7961 19.082L58.5338 17.6066L58.3371 14.6557C58.042 9.04922 53.2223 4.72135 47.5174 5.01643L14.1731 6.88528C8.56656 7.18036 4.23869 12.0984 4.53377 17.7049L6.40262 51.1475V51.9344C7.09115 57.0492 11.419 60.8852 16.5338 60.8852H17.1239L38.4682 59.7049V60.2951C38.1731 65.9016 42.4026 70.8197 48.1075 71.1148L81.5502 73.082H82.1403C87.5502 73.082 92.0748 68.8525 92.3698 63.4426L94.3371 30C94.7305 24.2951 90.4026 19.4754 84.7961 19.082ZM8.56656 11.6066C10.042 9.93446 12.1075 8.95086 14.2715 8.85249L47.7141 6.98364C52.2387 6.68856 56.1731 10.2295 56.4682 14.7541L56.6649 17.5082L51.4518 17.2131C45.8452 16.918 40.9272 21.1475 40.6321 26.8525L40.042 36.1967L30.6977 46.7213C30.501 47.0164 30.1075 47.1148 29.7141 47.2131C29.3207 47.2131 29.0256 47.1148 28.7305 46.8197L21.0584 39.9344C19.6813 38.6557 17.6157 38.8525 16.337 40.2295L8.36983 49.1803L6.59934 17.7049C6.40262 15.4426 7.18951 13.2787 8.56656 11.6066ZM17.1239 58.8197C12.8944 59.0164 9.15672 56.0656 8.46819 51.8361L17.7141 41.5082C17.9108 41.2131 18.3043 41.1148 18.6977 41.0164C19.0911 41.0164 19.3862 41.1148 19.6813 41.4098L27.3534 48.2951C28.042 48.8852 28.9272 49.1803 29.8125 49.1803C30.6977 49.1803 31.4846 48.6885 32.0748 48.0984L39.7469 39.4426L38.6649 57.7377L17.1239 58.8197ZM92.3698 29.8033L90.4026 63.2459C90.1075 67.7705 86.1731 71.3115 81.6485 71.0164L48.2059 69.0492C43.6813 68.7541 40.1403 64.8197 40.4354 60.2951L42.4026 26.8525C42.6977 22.5246 46.2387 19.082 50.6649 19.082H51.1567L84.5993 21.0492C89.2223 21.3443 92.6649 25.2787 92.3698 29.8033Z"
    fill="#F4F4F5"
  />
  <path
    d="M78.4027 41.9016L61.7797 30.9836C59.7141 29.6066 56.96 30.1967 55.6813 32.2623C55.2879 32.9508 54.9928 33.6393 54.9928 34.4262L53.8125 54.1967C53.7141 56.6557 55.4846 58.7213 57.9436 58.918H58.2387C58.9273 58.918 59.6158 58.7213 60.2059 58.4262L77.9109 49.5738C80.0748 48.4918 80.96 45.8361 79.8781 43.6721C79.4846 42.9836 78.9928 42.3934 78.4027 41.9016ZM77.0256 47.8033L59.3207 56.6557C58.9273 56.8525 58.5338 56.9508 58.042 56.9508C57.6486 56.9508 57.1568 56.7541 56.8617 56.5574C56.1732 56.0656 55.6814 55.2787 55.7797 54.3934L56.96 34.623C57.0584 33.7377 57.5502 32.9508 58.3371 32.5574C59.124 32.1639 60.0092 32.2623 60.7961 32.6557L77.2223 43.5738C78.4027 44.3607 78.6977 45.8361 77.9109 46.918C77.7141 47.3115 77.4191 47.6066 77.0256 47.8033Z"
    fill="#F4F4F5"
  />
</svg>
